<svg xmlns="http://www.w3.org/2000/svg" width="165" height="186" viewBox="0 0 165 186" version="1.1"><path d="M 68.071 44.752 C 63.360 47.154, 60.690 51.150, 60.044 56.764 L 59.500 61.500 47.500 62 L 35.500 62.500 35.189 65.716 C 34.867 69.048, 35.179 69.270, 41.500 70.224 C 43.439 70.516, 43.515 71.487, 44.001 102.013 C 44.338 123.121, 44.894 134.374, 45.689 136.152 C 46.342 137.610, 48.555 140.085, 50.608 141.652 L 54.340 144.500 83.920 144.788 C 113.062 145.072, 113.565 145.042, 117.926 142.788 C 125.886 138.673, 126 138.101, 126 102.373 C 126 68.558, 125.757 70, 131.459 70 C 134.374 70, 136.247 67.772, 135.827 64.805 C 135.513 62.593, 135.095 62.490, 125.500 62.252 C 111.542 61.906, 111.310 61.821, 110.483 56.753 C 109.540 50.980, 106.651 46.537, 102.583 44.606 C 97.519 42.203, 72.865 42.307, 68.071 44.752 M 70.612 53.294 C 69.369 54.203, 68.940 55.617, 69.171 58.044 L 69.500 61.500 82.500 61.798 C 99.757 62.193, 102 61.759, 102 58.026 C 102 52.643, 100.252 52, 85.620 52 C 76.367 52, 71.849 52.390, 70.612 53.294 M 53.667 70.667 C 53.300 71.033, 53 85.183, 53 102.110 C 53 132.780, 53.008 132.892, 55.223 134.443 C 57.107 135.763, 61.744 136, 85.684 136 C 113.445 136, 113.957 135.963, 115.961 133.811 C 117.920 131.709, 118 130.433, 118 101.418 C 118 74.798, 117.812 71.142, 116.418 70.607 C 114.255 69.777, 54.500 69.834, 53.667 70.667 M 72.200 86.200 C 71.365 87.035, 71 92.351, 71 103.681 L 71 119.962 73.513 120.593 C 78.483 121.840, 79 120.189, 79 103.078 C 79 87.065, 78.543 85, 75 85 C 74.120 85, 72.860 85.540, 72.200 86.200 M 93 85.977 C 91.820 86.721, 91.429 89.739, 91.167 100.115 C 90.751 116.618, 91.275 119.780, 94.557 120.604 C 99.476 121.838, 100 120.152, 100 103.078 C 100 87.111, 99.534 84.981, 96.050 85.015 C 95.198 85.024, 93.825 85.456, 93 85.977" stroke="none" fill="#fc1d1d" fill-rule="evenodd"/><path d="M 64 2.047 C 40.943 8, 22.025 24.047, 10.414 47.500 C 1.966 64.564, 0.613 70.846, 0.613 93 C 0.613 115.154, 1.966 121.436, 10.414 138.500 C 25.326 168.622, 51.700 186, 82.500 186 C 106.174 186, 127.595 175.561, 143.507 156.270 C 152.948 144.825, 161.840 125.223, 163.596 111.988 C 163.963 109.220, 164.654 106.714, 165.132 106.419 C 165.609 106.123, 166 99.582, 166 91.882 C 166 84.153, 165.609 78.124, 165.126 78.422 C 164.646 78.719, 163.955 76.716, 163.590 73.970 C 161.840 60.777, 152.934 41.159, 143.507 29.730 C 132.148 15.958, 116.905 6.107, 100.590 1.994 C 90.083 -0.655, 74.375 -0.632, 64 2.047 M 68.071 44.752 C 63.360 47.154, 60.690 51.150, 60.044 56.764 L 59.500 61.500 47.500 62 L 35.500 62.500 35.189 65.716 C 34.867 69.048, 35.179 69.270, 41.500 70.224 C 43.439 70.516, 43.515 71.487, 44.001 102.013 C 44.338 123.121, 44.894 134.374, 45.689 136.152 C 46.342 137.610, 48.555 140.085, 50.608 141.652 L 54.340 144.500 83.920 144.788 C 113.062 145.072, 113.565 145.042, 117.926 142.788 C 125.886 138.673, 126 138.101, 126 102.373 C 126 68.558, 125.757 70, 131.459 70 C 134.374 70, 136.247 67.772, 135.827 64.805 C 135.513 62.593, 135.095 62.490, 125.500 62.252 C 111.542 61.906, 111.310 61.821, 110.483 56.753 C 109.540 50.980, 106.651 46.537, 102.583 44.606 C 97.519 42.203, 72.865 42.307, 68.071 44.752 M 70.612 53.294 C 69.369 54.203, 68.940 55.617, 69.171 58.044 L 69.500 61.500 82.500 61.798 C 99.757 62.193, 102 61.759, 102 58.026 C 102 52.643, 100.252 52, 85.620 52 C 76.367 52, 71.849 52.390, 70.612 53.294 M 53.667 70.667 C 53.300 71.033, 53 85.183, 53 102.110 C 53 132.780, 53.008 132.892, 55.223 134.443 C 57.107 135.763, 61.744 136, 85.684 136 C 113.445 136, 113.957 135.963, 115.961 133.811 C 117.920 131.709, 118 130.433, 118 101.418 C 118 74.798, 117.812 71.142, 116.418 70.607 C 114.255 69.777, 54.500 69.834, 53.667 70.667 M 0.397 93 C 0.397 100.975, 0.553 104.237, 0.743 100.250 C 0.932 96.263, 0.932 89.737, 0.743 85.750 C 0.553 81.763, 0.397 85.025, 0.397 93 M 72.200 86.200 C 71.365 87.035, 71 92.351, 71 103.681 L 71 119.962 73.513 120.593 C 78.483 121.840, 79 120.189, 79 103.078 C 79 87.065, 78.543 85, 75 85 C 74.120 85, 72.860 85.540, 72.200 86.200 M 93 85.977 C 91.820 86.721, 91.429 89.739, 91.167 100.115 C 90.751 116.618, 91.275 119.780, 94.557 120.604 C 99.476 121.838, 100 120.152, 100 103.078 C 100 87.111, 99.534 84.981, 96.050 85.015 C 95.198 85.024, 93.825 85.456, 93 85.977" stroke="none" fill="#fcf7f7" fill-rule="evenodd"/></svg>